# xmcd CD database file
#
# Track frame offsets:
#	182
#	18580
#	34132
#	52180
#	64115
#	81332
#	103445
#	121262
#	137367
#	151340
#	161860
#	174952
#	193332
#	209305
#	219132
#
# Disc length: 3151 seconds
#
# Revision: 1
# Processed by: cddbd v1.4PL0 Copyright (c) Steve Scherf et al.
# Submitted via: CDex 1.50beta10
#
DISCID=d70c4d0f
DTITLE=Sarah Vaughan - The man I love
DYEAR=1989
DGENRE=Jazz
TTITLE0=The man I love
TTITLE1=Stormy weather
TTITLE2=Lover man
TTITLE3=After you've gone
TTITLE4=Solitude
TTITLE5=Little man
TTITLE6=Alone
TTITLE7='Round midnight
TTITLE8=The good life
TTITLE9=Just in time
TTITLE10=When lights are low
TTITLE11=In a sentimental mood
TTITLE12=Goodnight sweetheart
TTITLE13=Easy to love
TTITLE14=Sophisticated lady
EXTD=YEAR: 1989
EXTT0=
EXTT1=
EXTT2=
EXTT3=
EXTT4=
EXTT5=
EXTT6=
EXTT7=
EXTT8=
EXTT9=
EXTT10=
EXTT11=
EXTT12=
EXTT13=
EXTT14=
PLAYORDER=
